<svg width="131" height="66" viewBox="0 0 131 66" fill="none" xmlns="http://www.w3.org/2000/svg">
<mask id="mask0_501_16806" style="mask-type:alpha" maskUnits="userSpaceOnUse" x="1" y="1" width="129" height="64">
<rect width="128" height="64" transform="translate(1.66675 1)" fill="url(#paint0_linear_501_16806)"/>
</mask>
<g mask="url(#mask0_501_16806)">
<path d="M125.991 61.5642L129.667 65H1.66675V1C2.26089 2.90879 3.49374 12.3174 3.67198 12.3174C3.85023 12.3174 5.0088 4.8236 5.56581 5.96887L10.3561 9.4047L13.1411 23.7702L17.5971 12.2002L19.9366 8.76441L23.2786 23.7702H26.732L29.6284 15.7533C30.7425 14.608 33.0151 12.3174 33.1933 12.3174C33.3715 12.3174 34.8272 10.0269 35.5327 8.88162H37.3151L41.5484 16.5107L45.2246 15.7533L46.8956 23.7702L51.9087 27.206L54.4709 30.6418L57.3674 36.3682L60.1524 30.5427H61.3778L64.7198 38.289L67.9505 36.3682L70.7355 30.6418H72.4065L75.303 38.3881L79.4248 30.6418L83.3238 25.0507L87.2229 36.3682L91.1219 57.2175L94.0184 50.1115L97.1376 53.5473L101.371 50.1115L108.055 56.9831L111.174 53.5473L115.407 61.5642L118.972 56.9831L122.537 61.5642H125.991Z" fill="#FEF3F2"/>
</g>
<path d="M129.667 65L125.991 61.5642H122.537L118.972 56.9831L115.407 61.5642L111.174 53.5473L108.055 56.9831L101.371 50.1115L97.1376 53.5473L94.0184 50.1115L91.1219 57.2175L87.2229 36.3682L83.3238 25.0507L79.4248 30.6418L75.303 38.3881L72.4065 30.6418H70.7355L67.9505 36.3682L64.7198 38.289L61.3778 30.5427H60.1524L57.3674 36.3682L54.4709 30.6418L51.9087 27.206L46.8956 23.7702L45.2246 15.7533L41.5484 16.5107L37.3151 8.88162H35.5327C34.8272 10.0269 33.3715 12.3174 33.1933 12.3174C33.0151 12.3174 30.7425 14.608 29.6284 15.7533L26.732 23.7702H23.2786L19.9366 8.76441L17.5971 12.2002L13.1411 23.7702L10.3561 9.4047L5.56581 5.96887C5.0088 4.8236 3.85023 12.3174 3.67198 12.3174C3.49374 12.3174 2.26089 2.90879 1.66675 1" stroke="#F04438" stroke-width="2" stroke-linecap="round" stroke-linejoin="round"/>
<g opacity="0.2">
<rect x="72.6667" y="16" width="20" height="20" rx="10" stroke="#F04438" stroke-width="2"/>
</g>
<rect x="77.6667" y="21" width="10" height="10" rx="5" fill="white"/>
<rect x="77.6667" y="21" width="10" height="10" rx="5" stroke="#F04438" stroke-width="2"/>
<defs>
<linearGradient id="paint0_linear_501_16806" x1="64" y1="0" x2="64" y2="64" gradientUnits="userSpaceOnUse">
<stop/>
<stop offset="1" stop-opacity="0"/>
</linearGradient>
</defs>
</svg>
