<svg width="36" height="36" viewBox="0 0 36 36" fill="none" xmlns="http://www.w3.org/2000/svg">
<rect x="2" y="2" width="32" height="32" rx="16" fill="#D8E2FB"/>
<rect x="2" y="2" width="32" height="32" rx="16" stroke="#E8EAF3" stroke-width="4"/>
<path d="M17.9991 23.3538C18.8994 23.3538 19.6291 22.624 19.6291 21.7238C19.6291 20.8235 18.8994 20.0938 17.9991 20.0938C17.0989 20.0938 16.3691 20.8235 16.3691 21.7238C16.3691 22.624 17.0989 23.3538 17.9991 23.3538Z" fill="#0A29CF"/>
<path d="M24.28 15.53V14.28C24.28 11.58 23.63 8 18 8C12.37 8 11.72 11.58 11.72 14.28V15.53C8.92 15.88 8 17.3 8 20.79V22.65C8 26.75 9.25 28 13.35 28H22.65C26.75 28 28 26.75 28 22.65V20.79C28 17.3 27.08 15.88 24.28 15.53ZM18 24.74C16.33 24.74 14.98 23.38 14.98 21.72C14.98 20.05 16.34 18.7 18 18.7C19.66 18.7 21.02 20.06 21.02 21.72C21.02 23.39 19.67 24.74 18 24.74ZM13.35 15.44C13.27 15.44 13.2 15.44 13.12 15.44V14.28C13.12 11.35 13.95 9.4 18 9.4C22.05 9.4 22.88 11.35 22.88 14.28V15.45C22.8 15.45 22.73 15.45 22.65 15.45H13.35V15.44Z" fill="#0A29CF"/>
</svg>
