<svg width="131" height="66" viewBox="0 0 131 66" fill="none" xmlns="http://www.w3.org/2000/svg">
<mask id="mask0_501_16795" style="mask-type:alpha" maskUnits="userSpaceOnUse" x="1" y="1" width="129" height="64">
<rect width="128" height="64" transform="translate(1.33337 1)" fill="url(#paint0_linear_501_16795)"/>
</mask>
<g mask="url(#mask0_501_16795)">
<path d="M5.93944 57.2759L1.33337 65H129.333V1L127.515 12.0345H125.091C124.444 13.8736 123.103 17.5517 122.909 17.5517C122.715 17.5517 121.455 19.7586 120.849 20.8621L115.636 24.1724L112.606 28.5862L107.758 24.1724L105.212 20.8621L101.576 28.5862H97.8182L94.6667 20.8621C93.4546 19.7586 90.9819 17.5517 90.7879 17.5517C90.594 17.5517 89.0101 15.3448 88.2425 14.2414H86.3031L81.697 17.5517L77.697 20.8621L75.8788 28.5862L70.4243 31.8966L67.6364 35.2069L64.4849 40.7241L61.4546 47.9655H60.1213L56.4849 48.6552L52.9697 40.7241L49.9394 35.2069H48.1213L44.9697 31.8966L40.4849 35.2069H36.2425L32 40.7241L27.7576 47.3448L24.6061 53.9655L21.2122 57.2759L16.6061 53.9655L12.9697 57.2759L9.33337 60.5862L5.93944 57.2759Z" fill="#ECFDF3"/>
</g>
<path d="M1.33337 65L5.93944 57.2759L9.33337 60.5862L12.9697 57.2759L16.6061 53.9655L21.2122 57.2759L24.6061 53.9655L27.7576 47.3448L32 40.7241L36.2425 35.2069H40.4849L44.9697 31.8966L48.1213 35.2069H49.9394L52.9697 40.7241L56.4849 48.6552L60.1213 47.9655H61.4546L64.4849 40.7241L67.6364 35.2069L70.4243 31.8966L75.8788 28.5862L77.697 20.8621L81.697 17.5517L86.3031 14.2414H88.2425C89.0101 15.3448 90.594 17.5517 90.7879 17.5517C90.9819 17.5517 93.4546 19.7586 94.6667 20.8621L97.8182 28.5862H101.576L105.212 20.8621L107.758 24.1724L112.606 28.5862L115.636 24.1724L120.849 20.8621C121.455 19.7586 122.715 17.5517 122.909 17.5517C123.103 17.5517 124.444 13.8736 125.091 12.0345H127.515L129.333 1" stroke="#17B26A" stroke-width="2" stroke-linecap="round" stroke-linejoin="round"/>
<g opacity="0.2">
<rect x="76.3334" y="5" width="20" height="20" rx="10" stroke="#17B26A" stroke-width="2"/>
</g>
<rect x="81.3334" y="10" width="10" height="10" rx="5" fill="white"/>
<rect x="81.3334" y="10" width="10" height="10" rx="5" stroke="#17B26A" stroke-width="2"/>
<defs>
<linearGradient id="paint0_linear_501_16795" x1="64" y1="0" x2="64" y2="64" gradientUnits="userSpaceOnUse">
<stop/>
<stop offset="1" stop-opacity="0"/>
</linearGradient>
</defs>
</svg>
